<mxfile host="65bd71144e">
    <diagram id="nBJkx511C3LaVgAnyFTg" name="Page-1">
        <mxGraphModel dx="537" dy="907" grid="1" gridSize="10" guides="1" tooltips="1" connect="1" arrows="1" fold="1" page="1" pageScale="1" pageWidth="850" pageHeight="1100" math="0" shadow="0">
            <root>
                <mxCell id="0"/>
                <mxCell id="1" parent="0"/>
                <mxCell id="49" value="" style="rounded=0;whiteSpace=wrap;html=1;fillColor=#fff2cc;strokeColor=none;align=left;verticalAlign=top;" parent="1" vertex="1">
                    <mxGeometry x="660" y="530" width="180" height="390" as="geometry"/>
                </mxCell>
                <mxCell id="16" value="Extension API" style="rounded=0;whiteSpace=wrap;html=1;fillColor=#fff2cc;strokeColor=none;align=left;verticalAlign=top;fontSize=15;" parent="1" vertex="1">
                    <mxGeometry x="60" y="530" width="600" height="390" as="geometry"/>
                </mxCell>
                <mxCell id="23" value="YYY Creator" style="rounded=0;whiteSpace=wrap;html=1;fillColor=#ffe6cc;strokeColor=#d79b00;" parent="1" vertex="1">
                    <mxGeometry x="680" y="610" width="140" height="20" as="geometry"/>
                </mxCell>
                <mxCell id="41" style="edgeStyle=none;html=1;exitX=0.5;exitY=0;exitDx=0;exitDy=0;entryX=0.5;entryY=0;entryDx=0;entryDy=0;endArrow=block;endFill=1;strokeColor=#808080;" parent="1" source="16" target="36" edge="1">
                    <mxGeometry relative="1" as="geometry"/>
                </mxCell>
                <mxCell id="2" value="API&lt;br&gt;Multiplexer" style="rounded=1;whiteSpace=wrap;html=1;fillColor=#dae8fc;strokeColor=#6c8ebf;" parent="1" vertex="1">
                    <mxGeometry x="300" y="400" width="120" height="80" as="geometry"/>
                </mxCell>
                <mxCell id="5" value="Return manifests or instances if any.&lt;br&gt;Create a new instance based on the manifest when necessary." style="rounded=1;whiteSpace=wrap;html=1;fillColor=#fff2cc;strokeColor=#d6b656;" parent="1" vertex="1">
                    <mxGeometry x="80" y="640" width="160" height="120" as="geometry"/>
                </mxCell>
                <mxCell id="8" style="edgeStyle=orthogonalEdgeStyle;html=1;exitX=0.5;exitY=1;exitDx=0;exitDy=0;endArrow=block;endFill=1;entryX=0.5;entryY=0;entryDx=0;entryDy=0;" parent="1" source="2" target="16" edge="1">
                    <mxGeometry relative="1" as="geometry">
                        <mxPoint x="390" y="450" as="sourcePoint"/>
                        <mxPoint x="380" y="500" as="targetPoint"/>
                    </mxGeometry>
                </mxCell>
                <mxCell id="13" style="edgeStyle=orthogonalEdgeStyle;html=1;endArrow=block;endFill=1;exitX=0;exitY=0.5;exitDx=0;exitDy=0;strokeWidth=3;fillColor=#f8cecc;strokeColor=#b85450;entryX=0.5;entryY=0;entryDx=0;entryDy=0;" parent="1" source="14" target="2" edge="1">
                    <mxGeometry relative="1" as="geometry">
                        <mxPoint x="330" y="310" as="sourcePoint"/>
                        <mxPoint x="340" y="370" as="targetPoint"/>
                    </mxGeometry>
                </mxCell>
                <mxCell id="15" value="" style="group" parent="1" vertex="1" connectable="0">
                    <mxGeometry x="450" y="330" width="110" height="70" as="geometry"/>
                </mxCell>
                <mxCell id="14" value="" style="ellipse;whiteSpace=wrap;html=1;fillColor=#f5f5f5;fontColor=#333333;strokeColor=none;" parent="15" vertex="1">
                    <mxGeometry width="110" height="70" as="geometry"/>
                </mxCell>
                <mxCell id="11" value="" style="sketch=0;pointerEvents=1;shadow=0;dashed=0;html=1;strokeColor=none;fillColor=#505050;labelPosition=center;verticalLabelPosition=bottom;verticalAlign=top;outlineConnect=0;align=center;shape=mxgraph.office.concepts.document;" parent="15" vertex="1">
                    <mxGeometry x="20" y="10" width="30" height="40" as="geometry"/>
                </mxCell>
                <mxCell id="12" value="" style="sketch=0;pointerEvents=1;shadow=0;dashed=0;html=1;strokeColor=none;fillColor=#505050;labelPosition=center;verticalLabelPosition=bottom;verticalAlign=top;outlineConnect=0;align=center;shape=mxgraph.office.concepts.document;" parent="15" vertex="1">
                    <mxGeometry x="60" y="20" width="30" height="40" as="geometry"/>
                </mxCell>
                <mxCell id="21" value="Storage&lt;br&gt;(manifests, instances, ...)" style="shape=cylinder3;whiteSpace=wrap;html=1;boundedLbl=1;backgroundOutline=1;size=15;fillColor=#fff2cc;strokeColor=#d6b656;" parent="1" vertex="1">
                    <mxGeometry x="240" y="820" width="240" height="80" as="geometry"/>
                </mxCell>
                <mxCell id="24" value="GET" style="text;html=1;strokeColor=none;fillColor=none;align=center;verticalAlign=middle;whiteSpace=wrap;rounded=0;" parent="1" vertex="1">
                    <mxGeometry x="120" y="640" width="80" height="30" as="geometry"/>
                </mxCell>
                <mxCell id="25" value="" style="endArrow=block;startArrow=block;html=1;strokeWidth=1;entryX=0.5;entryY=1;entryDx=0;entryDy=0;endFill=1;startFill=1;exitX=0.5;exitY=0;exitDx=0;exitDy=0;exitPerimeter=0;strokeColor=#d6b656;fillColor=#fff2cc;edgeStyle=orthogonalEdgeStyle;" parent="1" source="21" target="5" edge="1">
                    <mxGeometry width="50" height="50" relative="1" as="geometry">
                        <mxPoint x="215" y="909.96" as="sourcePoint"/>
                        <mxPoint x="365" y="830" as="targetPoint"/>
                    </mxGeometry>
                </mxCell>
                <mxCell id="27" value="Manifests&lt;br&gt;(json, yaml, ...)" style="text;html=1;strokeColor=none;fillColor=none;align=center;verticalAlign=middle;whiteSpace=wrap;rounded=0;" parent="1" vertex="1">
                    <mxGeometry x="450" y="300" width="110" height="30" as="geometry"/>
                </mxCell>
                <mxCell id="28" value="API Requests" style="text;html=1;strokeColor=none;fillColor=none;align=center;verticalAlign=middle;whiteSpace=wrap;rounded=0;" parent="1" vertex="1">
                    <mxGeometry x="350" y="340" width="80" height="20" as="geometry"/>
                </mxCell>
                <mxCell id="35" value="Dispatch to the Creator API" style="text;html=1;strokeColor=none;fillColor=none;align=center;verticalAlign=middle;whiteSpace=wrap;rounded=0;" parent="1" vertex="1">
                    <mxGeometry x="370" y="480" width="90" height="40" as="geometry"/>
                </mxCell>
                <mxCell id="36" value="Serve ( context.Context, *Requests ) ( *Response, error )" style="rounded=1;whiteSpace=wrap;html=1;fillColor=#fff2cc;strokeColor=#d6b656;fontStyle=1" parent="1" vertex="1">
                    <mxGeometry x="180" y="560" width="360" height="40" as="geometry"/>
                </mxCell>
                <mxCell id="42" style="edgeStyle=orthogonalEdgeStyle;html=1;exitX=0.5;exitY=1;exitDx=0;exitDy=0;entryX=0.5;entryY=0;entryDx=0;entryDy=0;endArrow=block;endFill=1;strokeColor=#808080;" parent="1" source="36" target="5" edge="1">
                    <mxGeometry relative="1" as="geometry">
                        <mxPoint x="370" y="510" as="sourcePoint"/>
                        <mxPoint x="370" y="570" as="targetPoint"/>
                    </mxGeometry>
                </mxCell>
                <mxCell id="43" style="edgeStyle=orthogonalEdgeStyle;html=1;exitX=0.5;exitY=1;exitDx=0;exitDy=0;entryX=0.5;entryY=0;entryDx=0;entryDy=0;endArrow=block;endFill=1;strokeColor=#808080;" parent="1" source="36" target="39" edge="1">
                    <mxGeometry relative="1" as="geometry">
                        <mxPoint x="370" y="610" as="sourcePoint"/>
                        <mxPoint x="170" y="650" as="targetPoint"/>
                    </mxGeometry>
                </mxCell>
                <mxCell id="44" style="html=1;exitX=0.5;exitY=1;exitDx=0;exitDy=0;entryX=0.5;entryY=0;entryDx=0;entryDy=0;endArrow=block;endFill=1;strokeColor=#808080;" parent="1" source="36" target="37" edge="1">
                    <mxGeometry relative="1" as="geometry">
                        <mxPoint x="370" y="610" as="sourcePoint"/>
                        <mxPoint x="570" y="650" as="targetPoint"/>
                    </mxGeometry>
                </mxCell>
                <mxCell id="45" value="FooBar Creator" style="rounded=0;whiteSpace=wrap;html=1;fillColor=#ffe6cc;strokeColor=#d79b00;" parent="1" vertex="1">
                    <mxGeometry x="680" y="670" width="140" height="90" as="geometry"/>
                </mxCell>
                <mxCell id="46" value="ZZZ Creator" style="rounded=0;whiteSpace=wrap;html=1;fillColor=#ffe6cc;strokeColor=#d79b00;" parent="1" vertex="1">
                    <mxGeometry x="680" y="640" width="140" height="20" as="geometry"/>
                </mxCell>
                <mxCell id="47" value="XXX Creator" style="rounded=0;whiteSpace=wrap;html=1;fillColor=#ffe6cc;strokeColor=#d79b00;" parent="1" vertex="1">
                    <mxGeometry x="680" y="580" width="140" height="20" as="geometry"/>
                </mxCell>
                <mxCell id="48" value="Registered creator" style="text;html=1;strokeColor=none;fillColor=none;align=center;verticalAlign=middle;whiteSpace=wrap;rounded=0;" parent="1" vertex="1">
                    <mxGeometry x="680" y="550" width="140" height="20" as="geometry"/>
                </mxCell>
                <mxCell id="52" value="" style="endArrow=block;html=1;strokeColor=#b85450;fillColor=#f8cecc;endFill=1;exitX=0;exitY=0.5;exitDx=0;exitDy=0;entryX=1;entryY=0.5;entryDx=0;entryDy=0;startArrow=block;startFill=1;" parent="1" source="45" target="5" edge="1">
                    <mxGeometry width="50" height="50" relative="1" as="geometry">
                        <mxPoint x="687.34" y="725.27" as="sourcePoint"/>
                        <mxPoint x="450" y="710" as="targetPoint"/>
                    </mxGeometry>
                </mxCell>
                <mxCell id="37" value="Register manifests. Do not instanciate the resource until it was required by GET requests." style="rounded=1;whiteSpace=wrap;html=1;fillColor=#fff2cc;strokeColor=#d6b656;" parent="1" vertex="1">
                    <mxGeometry x="280" y="640" width="160" height="120" as="geometry"/>
                </mxCell>
                <mxCell id="39" value="Delete manifests or instances stored in the storage if any." style="rounded=1;whiteSpace=wrap;html=1;fillColor=#fff2cc;strokeColor=#d6b656;" parent="1" vertex="1">
                    <mxGeometry x="480" y="640" width="160" height="120" as="geometry"/>
                </mxCell>
                <mxCell id="38" value="POST" style="text;html=1;strokeColor=none;fillColor=none;align=center;verticalAlign=middle;whiteSpace=wrap;rounded=0;" parent="1" vertex="1">
                    <mxGeometry x="320" y="640" width="80" height="30" as="geometry"/>
                </mxCell>
                <mxCell id="40" value="DELETE" style="text;html=1;strokeColor=none;fillColor=none;align=center;verticalAlign=middle;whiteSpace=wrap;rounded=0;" parent="1" vertex="1">
                    <mxGeometry x="520" y="640" width="80" height="30" as="geometry"/>
                </mxCell>
                <mxCell id="53" value="" style="endArrow=block;startArrow=block;html=1;strokeWidth=1;entryX=0.5;entryY=1;entryDx=0;entryDy=0;endFill=1;startFill=1;exitX=0.5;exitY=0;exitDx=0;exitDy=0;exitPerimeter=0;strokeColor=#d6b656;fillColor=#fff2cc;edgeStyle=orthogonalEdgeStyle;" parent="1" source="21" target="39" edge="1">
                    <mxGeometry width="50" height="50" relative="1" as="geometry">
                        <mxPoint x="370" y="850" as="sourcePoint"/>
                        <mxPoint x="130" y="770" as="targetPoint"/>
                    </mxGeometry>
                </mxCell>
                <mxCell id="54" value="" style="endArrow=block;startArrow=block;html=1;strokeWidth=1;entryX=0.5;entryY=1;entryDx=0;entryDy=0;endFill=1;startFill=1;exitX=0.5;exitY=0;exitDx=0;exitDy=0;exitPerimeter=0;strokeColor=#d6b656;fillColor=#fff2cc;" parent="1" source="21" target="37" edge="1">
                    <mxGeometry width="50" height="50" relative="1" as="geometry">
                        <mxPoint x="370" y="850" as="sourcePoint"/>
                        <mxPoint x="570" y="770" as="targetPoint"/>
                    </mxGeometry>
                </mxCell>
            </root>
        </mxGraphModel>
    </diagram>
</mxfile>